<svg viewBox="0 0 24 24" xmlns="http://www.w3.org/2000/svg"><path d="M12 2a10 10 0 1 0 0 20 10 10 0 0 0 0-20Zm0 2c.62 0 1.58 1.1 2.16 3h-4.32C10.42 5.1 11.38 4 12 4ZM4.26 13a8.25 8.25 0 0 1 0-2h3.48a16.5 16.5 0 0 0 0 2H4.26Zm.82 2h3.05c.28 1.33.72 2.53 1.3 3.45A8.06 8.06 0 0 1 5.08 15Zm3.05-6H5.08a8.06 8.06 0 0 1 4.35-3.45A11.8 11.8 0 0 0 8.13 9ZM12 20c-.62 0-1.58-1.1-2.16-3h4.32C13.58 18.9 12.62 20 12 20Zm2.65-5h-5.3a13.17 13.17 0 0 1 0-6h5.3a13.17 13.17 0 0 1 0 6Zm-.08 3.45c.58-.92 1.02-2.12 1.3-3.45h3.05a8.06 8.06 0 0 1-4.35 3.45ZM19.74 13h-3.48a16.5 16.5 0 0 0 0-2h3.48a8.25 8.25 0 0 1 0 2Zm-3.87-4a11.8 11.8 0 0 0-1.3-3.45A8.06 8.06 0 0 1 18.92 9h-3.05Z"/></svg>
